<?xml version="1.0" encoding="utf-8"?>
<!-- Generator: Adobe Illustrator 26.2.1, SVG Export Plug-In . SVG Version: 6.00 Build 0)  -->
<svg version="1.1" id="Layer_1" xmlns="http://www.w3.org/2000/svg" xmlns:xlink="http://www.w3.org/1999/xlink" x="0px" y="0px"
	 viewBox="0 0 310.1 69.7" style="enable-background:new 0 0 310.1 69.7;" xml:space="preserve">
<style type="text/css">
	.st0{fill:#FFFFFF;}
	.st1{fill:#E69633;}
</style>
<g>
	<g>
		<path class="st0" d="M82.6,44c-0.8-1.2-1.2-3-1.2-5.5V28.3c0-2.2,0.5-3.9,1.4-5c0.9-1.1,2.4-1.7,4.2-1.7c1.5,0,2.7,0.3,3.5,0.9
			c0.8,0.6,1.4,1.5,1.7,2.7c0.3,1.2,0.5,2.7,0.5,4.6h-4.5v-2.1c0-0.6-0.1-1-0.2-1.3c-0.2-0.3-0.4-0.5-0.8-0.5
			c-0.9,0-1.3,0.6-1.3,1.8v11.5c0,0.7,0.1,1.3,0.3,1.6s0.5,0.6,0.9,0.6c0.4,0,0.8-0.2,0.9-0.6s0.3-0.9,0.3-1.6v-3.4h-1.2v-4.1h5.6
			v13.8h-1.9l-0.8-2c-0.8,1.5-2.1,2.2-3.8,2.2C84.6,45.8,83.4,45.2,82.6,44z"/>
		<path class="st0" d="M99.9,44c-1-1.2-1.4-2.8-1.4-4.9V27.8c0-2,0.5-3.6,1.4-4.6s2.4-1.6,4.2-1.6s3.3,0.5,4.2,1.6
			c1,1,1.4,2.6,1.4,4.6v11.3c0,2.1-0.5,3.8-1.4,5c-1,1.2-2.4,1.7-4.2,1.7S100.8,45.2,99.9,44z M104.9,40.9c0.1-0.4,0.2-0.9,0.2-1.5
			V27.7c0-0.5-0.1-0.9-0.2-1.3c-0.1-0.3-0.4-0.5-0.8-0.5c-0.8,0-1.2,0.6-1.2,1.8v11.6c0,0.7,0.1,1.2,0.2,1.5
			c0.2,0.4,0.5,0.5,0.9,0.5C104.5,41.4,104.8,41.2,104.9,40.9z"/>
		<path class="st0" d="M115.7,21.8h6.4c1.6,0,2.9,0.5,3.7,1.4c0.8,0.9,1.2,2.3,1.3,4.2l0.1,11.1c0,2.3-0.4,4.1-1.2,5.3
			c-0.8,1.2-2.1,1.8-4,1.8h-6.2V21.8z M121.1,41.4c0.8,0,1.3-0.4,1.3-1.3V27.8c0-0.5,0-0.9-0.1-1.2c-0.1-0.3-0.2-0.4-0.4-0.5
			c-0.2-0.1-0.5-0.1-1-0.1h-0.5v15.4H121.1z"/>
		<path class="st0" d="M132.7,45.6V21.8h4.5v23.8H132.7z"/>
		<path class="st0" d="M143,45.6V21.8h4.7l2.1,11.4V21.8h4.5v23.8h-4.5l-2.3-11.9v11.9H143z"/>
		<path class="st0" d="M159.8,45.6l2.2-23.8h7.8l2.2,23.8h-4.4l-0.3-3.8h-2.8l-0.3,3.8H159.8z M164.9,37.9h2.1l-1-12.1h-0.2
			L164.9,37.9z"/>
		<path class="st0" d="M188.7,44.2c-0.9-1.1-1.4-2.8-1.4-5.2v-2.3h4.5v3c0,1.2,0.4,1.8,1.1,1.8c0.4,0,0.7-0.1,0.9-0.4
			s0.2-0.7,0.2-1.3c0-0.8-0.1-1.4-0.3-1.9c-0.2-0.5-0.4-0.9-0.7-1.3c-0.3-0.3-0.8-0.9-1.5-1.6l-2-2c-1.5-1.5-2.3-3.3-2.3-5.1
			c0-2,0.5-3.6,1.4-4.6s2.2-1.6,4-1.6c2.1,0,3.6,0.6,4.5,1.7c0.9,1.1,1.4,2.9,1.4,5.3h-4.7l0-1.6c0-0.3-0.1-0.6-0.3-0.7
			s-0.4-0.3-0.7-0.3c-0.4,0-0.6,0.1-0.8,0.3c-0.2,0.2-0.3,0.5-0.3,0.8c0,0.8,0.4,1.6,1.3,2.4l2.7,2.7c0.6,0.6,1.1,1.2,1.6,1.8
			c0.4,0.6,0.7,1.2,1,2c0.3,0.8,0.4,1.7,0.4,2.7c0,2.3-0.4,4.1-1.2,5.3c-0.8,1.2-2.2,1.8-4.1,1.8C191.1,45.8,189.6,45.3,188.7,44.2z
			"/>
		<path class="st0" d="M203.5,45.6l2.2-23.8h7.8l2.2,23.8h-4.4l-0.3-3.8h-2.8l-0.3,3.8H203.5z M208.6,37.9h2.1l-1-12.1h-0.2
			L208.6,37.9z"/>
		<path class="st0" d="M233.6,45.6l-2.8-23.8h4.4l1.7,16.2l1.5-16.2h4.4l-2.8,23.8H233.6z"/>
		<path class="st0" d="M246.9,45.6l2.2-23.8h7.8l2.2,23.8h-4.4l-0.3-3.8h-2.8l-0.3,3.8H246.9z M252,37.9h2.1l-1-12.1h-0.2L252,37.9z
			"/>
		<path class="st0" d="M264.6,45.6V21.8h7l1.9,14.5l1.9-14.5h7.1v23.8h-4.2V28.5l-2.7,17.1h-4.1l-2.8-17.1v17.1H264.6z"/>
		<path class="st0" d="M288,45.6l2.2-23.8h7.8l2.2,23.8h-4.4l-0.3-3.8h-2.8l-0.3,3.8H288z M293.1,37.9h2.1l-1-12.1H294L293.1,37.9z"
			/>
		<path class="st0" d="M306.3,39.1l-0.9-17.3h4.7l-0.9,17.3H306.3z M305.4,45.6v-4h4.7v4H305.4z"/>
	</g>
	<g>
		<polygon class="st0" points="65,15.8 65,9.9 59.9,9.9 59.9,15.8 54,15.8 54,20.9 59.9,20.9 59.9,26.8 65,26.8 65,20.9 70.9,20.9 
			70.9,15.8 		"/>
		<path class="st1" d="M63.7,32.1c0.1,0.9,0.1,1.8,0.1,2.7c0,16-13,29-29,29s-29-13-29-29s13-29,29-29c6.2,0,12.1,1.9,17.1,5.6
			l3.5-4.7C49.4,2.3,42.3,0,34.8,0C15.6,0,0,15.6,0,34.8s15.6,34.8,34.8,34.8s34.8-15.6,34.8-34.8c0-1.1-0.1-2.2-0.1-3.2L63.7,32.1z
			"/>
		<path class="st0" d="M28.3,53.5V16.3h-6.4c-0.4,0.9-1,1.7-1.8,2.4c-0.8,0.7-1.7,1.2-2.6,1.5c-0.9,0.4-1.8,0.6-2.6,0.7v5.9
			c0.8,0,1.7-0.2,2.7-0.6c1-0.4,1.7-0.9,2.2-1.5v28.6H28.3z"/>
		<path class="st0" d="M31.4,35.3c-0.5,1.2-0.7,2.7-0.7,4.6v2.5c0,3.7,0.8,6.5,2.4,8.5c1.6,2,4.3,3,8,3c3.8,0,6.4-1,8-3
			c1.6-2,2.4-4.8,2.4-8.5v-2.5c0-1.9-0.2-3.4-0.6-4.5c-0.4-1.1-1.4-2-2.8-2.7c1.3-0.5,2.2-1.4,2.7-2.6c0.5-1.2,0.7-2.7,0.7-4.5
			c0-3.4-0.9-5.9-2.6-7.4c-1.7-1.5-4.3-2.3-7.8-2.3c-3.4,0-6,0.7-7.7,2.2c-1.8,1.5-2.7,3.9-2.7,7.2v1c0,1.6,0.3,3,0.8,4.1
			c0.5,1.1,1.4,1.9,2.6,2.3C32.8,33.3,31.9,34.2,31.4,35.3z M39.5,23.7c0.3-0.7,0.9-1.1,1.7-1.1c0.8,0,1.4,0.4,1.7,1.1
			c0.3,0.7,0.4,1.4,0.4,2.2c0,2.4-0.7,3.5-2.1,3.5c-1.4,0-2.1-1.2-2.1-3.5C39,25.2,39.2,24.4,39.5,23.7z M39,39.8
			c0-1.1,0.2-2,0.5-2.6c0.3-0.6,0.9-1,1.7-1c0.8,0,1.4,0.3,1.7,1c0.3,0.6,0.5,1.5,0.5,2.6v3.4c0,2.2-0.7,3.3-2.2,3.3
			c-1.4,0-2.2-1.1-2.2-3.3V39.8z"/>
	</g>
</g>
</svg>
