<?xml version="1.0" encoding="utf-8"?>
<!-- Generator: Adobe Illustrator 26.2.1, SVG Export Plug-In . SVG Version: 6.00 Build 0)  -->
<svg version="1.1" id="Layer_1" xmlns="http://www.w3.org/2000/svg" xmlns:xlink="http://www.w3.org/1999/xlink" x="0px" y="0px"
	 viewBox="0 0 122.2 65.3" style="enable-background:new 0 0 122.2 65.3;" xml:space="preserve">
<style type="text/css">
	.st0{fill:#E89719;}
</style>
<g>
	<path class="st0" d="M92.8,59.6c2.9-1.3,5.6-3.5,7.5-6.6c4.6-7.5,3.1-17-3.4-21.3c-6.5-4.3-15.5-1.7-20.1,5.8
		c-4.5,7.3-3.1,16.6,3,21c-11.4-0.8-23.3-1.2-35-1.2c1.1-1.1,2.1-2.3,3-3.7c5.2-8.2,3.5-18.6-3.8-23.3c-7.3-4.7-17.4-1.8-22.6,6.3
		c-4.5,7.1-3.8,15.8,1.2,21C15.1,58,8,58.6,1.7,59.3l2.9,6c13.8-2.9,84.7-8.1,117.6-1.1C114.1,62.3,104,60.7,92.8,59.6z M81.5,38.3
		c3.6-5.8,10-7.7,14.4-4.8c4.4,2.9,5.2,9.5,1.7,15.4C94,54.7,87.4,57.1,83,54.2C78.6,51.2,77.9,44.1,81.5,38.3z M26.8,37.5
		C30.9,31.1,38,29,43,32.2c5,3.2,6,10.4,1.9,16.9c-4.1,6.4-11.4,9-16.4,5.8C23.5,51.7,22.7,43.9,26.8,37.5z"/>
	<path class="st0" d="M7.3,50.6l-2.1-6.1l3.5,0c2.2-0.3,3-2.1,2.5-4.7L8.9,24.2l8.9-0.7c1.9-0.2,3.5-1,5.4-4.9l5.4-11
		c9-1.3,36.2,0.2,44.4,1l11,12.1c2.2,2.5,4.9,3.1,4.9,3.1l26.8,8.9l-4.9,20.1l11.1,2.5l-7.6-3.3l7.3-16.4c1-3.6,0-7.2-5.2-8.7
		l-26.7-8.6l-12-13.9c-1.1-1.1-1.8-2.2-5.7-2.5C56.2,0.6,38.7-0.7,29.7,0.5c-4,0.5-6.4,1.4-8.5,6.5l-4.1,10.5l-9.3-0.1
		c-6.2-0.1-7.9,4.7-6.4,8.4l5.2,15.4L0,42.2L7.3,50.6z"/>
</g>
</svg>
