<svg enable-background="new 0 0 238.674 28.287" height="28.287" viewBox="0 0 238.674 28.287" width="238.674" xmlns="http://www.w3.org/2000/svg"><path d="m40.188 25.81c1.264-.557 2.414-1.526 3.237-2.866 1.995-3.238 1.332-7.374-1.476-9.228-2.81-1.86-6.704-.737-8.695 2.503-1.951 3.172-1.35 7.199 1.317 9.107-4.923-.346-10.101-.525-15.142-.534.484-.462.928-.986 1.307-1.585 2.248-3.54 1.508-8.048-1.65-10.072-3.161-2.026-7.544-.799-9.793 2.742-1.942 3.063-1.648 6.843.505 9.119-3.251.151-6.314.385-9.049.705l1.276 2.586c5.989-1.251 36.709-3.521 50.935-.463-3.512-.847-7.92-1.521-12.772-2.014zm-4.892-9.23c1.555-2.532 4.32-3.338 6.245-2.068 1.921 1.271 2.274 4.137.72 6.67-1.555 2.53-4.376 3.554-6.298 2.283-1.923-1.272-2.224-4.354-.667-6.885zm-23.691-.332c1.769-2.784 4.86-3.673 7.024-2.288 2.163 1.386 2.578 4.522.811 7.307-1.766 2.783-4.952 3.917-7.117 2.53-2.162-1.385-2.485-4.764-.718-7.549z" fill="#e89723"/><path d="m3.147 21.915-.923-2.635 1.498-.021c.956-.128 1.296-.904 1.065-2.045l-.917-6.73 3.838-.322c.817-.082 1.527-.436 2.336-2.121l2.318-4.782c3.896-.559 15.702.108 19.227.431l4.765 5.233c.95 1.082 2.142 1.327 2.142 1.327l11.632 3.86-2.102 8.695 4.818 1.104-3.302-1.428 3.153-7.128c.429-1.573.021-3.102-2.235-3.749l-11.586-3.727-5.193-6.026c-.461-.49-.764-.962-2.453-1.09-6.876-.518-14.442-1.063-18.34-.565-1.74.223-2.776.595-3.671 2.795l-1.788 4.564-4.017-.023c-2.683-.054-3.414 2.021-2.791 3.656l2.251 6.679-2.872.406z" fill="#e89723"/><g fill="#c32032"><path d="m136.611 23.252-.968 3.706c-.09.362-.11.387-.493.387h-2.229c-.338 0-.45-.068-.45-.272 0-.045.022-.114.067-.271l4.433-14.584c.113-.361.136-.383.496-.383h2.342c.36 0 .382.022.495.383l4.434 14.584c.045.136.065.226.065.293 0 .182-.11.251-.448.251h-2.453c-.383 0-.429-.025-.518-.388l-.969-3.706zm3.219-2.126-.832-3.864c-.202-.929-.27-1.334-.563-3.053-.204 1.312-.293 1.831-.586 3.053l-.899 3.864z"/><path d="m148.181 11.835c.405 0 .474.068.474.475v9.791c0 1.444.066 1.873.404 2.35.405.565 1.035.835 1.892.835 1.776 0 2.498-.926 2.498-3.142v-9.834c0-.406.067-.475.473-.475h2.025c.427 0 .473.045.473.475v9.791c0 1.941-.294 2.937-1.148 3.887-1.08 1.197-2.521 1.741-4.546 1.741-2.048 0-3.467-.61-4.321-1.878-.607-.858-.833-1.92-.833-3.75v-9.791c0-.43.046-.475.473-.475z"/><path d="m166.732 11.835h-8.805c-.428 0-.472.068-.472.475v1.763c0 .408.044.453.472.453h2.837v12.343c0 .43.046.477.474.477h.001 2.183.002c.428 0 .472-.047.472-.477v-12.344h2.837c.426 0 .471-.045.471-.453v-1.762c0-.407-.046-.475-.472-.475z"/><path d="m176.993 13.056c1.126 1.288 1.666 3.391 1.666 6.352 0 3.098-.563 5.246-1.757 6.647-.922 1.108-2.229 1.673-3.871 1.673-3.76 0-5.514-2.713-5.514-8.478 0-1.899.36-3.889.898-4.93.945-1.831 2.658-2.871 4.706-2.871 1.552.001 2.995.612 3.872 1.607zm-6.236 6.466c0 3.887.765 5.763 2.316 5.763 1.578 0 2.343-1.897 2.343-5.695 0-3.843-.765-5.697-2.318-5.697-1.507 0-2.341 1.989-2.341 5.629z"/><path d="m185.839 17.916c.134.406.403 1.606.606 2.599.385-1.445.496-1.874.766-2.619l1.912-5.699c.113-.339.138-.361.495-.361h2.116c.406 0 .451.068.474.452l.72 14.581.021.159c0 .226-.135.317-.472.317h-2.025c-.405 0-.474-.068-.474-.453l-.158-7.98v-.769c0-.386 0-.386.024-2.487-.338 1.492-.608 2.556-.834 3.278l-1.438 4.636c-.115.337-.137.36-.521.36h-1.371c-.361 0-.405-.023-.495-.385l-1.26-4.409c-.137-.475-.588-2.306-.836-3.48l.023 2.849v.7l-.181 7.688c0 .385-.066.453-.47.453h-1.824c-.338 0-.451-.092-.451-.341v-.136l.654-14.583c.021-.383.089-.451.473-.451h2.226c.339 0 .386.021.497.361z"/><path d="m203.958 13.056c1.126 1.288 1.665 3.391 1.665 6.352 0 3.098-.563 5.246-1.755 6.647-.924 1.108-2.229 1.673-3.872 1.673-3.76 0-5.514-2.713-5.514-8.478 0-1.899.358-3.889.9-4.93.944-1.831 2.657-2.871 4.703-2.871 1.553.001 2.995.612 3.873 1.607zm-6.235 6.466c0 3.887.765 5.763 2.318 5.763 1.574 0 2.341-1.897 2.341-5.695 0-3.843-.766-5.697-2.317-5.697-1.51 0-2.342 1.989-2.342 5.629z"/><path d="m211.633 11.835c2.092 0 2.814.114 3.579.609 1.011.635 1.642 1.946 1.642 3.371 0 .971-.336 1.898-.899 2.509-.337.361-.652.565-1.373.905 1.801.476 2.836 1.853 2.836 3.729 0 1.606-.854 3.19-2.07 3.866-.743.385-1.576.522-3.534.522h-3.827c-.427 0-.472-.048-.472-.477v-14.559c0-.407.068-.475.472-.475zm-1.193 6.443h.945c.898 0 1.307-.09 1.712-.362.473-.338.763-.995.763-1.786s-.29-1.424-.832-1.762c-.314-.204-.675-.272-1.396-.272h-1.191v4.182zm0 6.603h1.058c2.026 0 2.814-.591 2.814-2.104 0-1.56-.766-2.17-2.768-2.17h-1.104z"/><path d="m222.686 26.868c0 .408-.067.477-.474.477h-2.137c-.428 0-.474-.047-.474-.477v-14.558c0-.43.046-.475.474-.475h2.137c.406 0 .474.068.474.475z"/><path d="m238.674 26.868c0 .408-.068.477-.473.477h-2.14c-.426 0-.473-.047-.473-.477v-14.558c0-.43.047-.475.473-.475h2.14c.404 0 .473.068.473.475z"/><path d="m233.731 24.581h-5.431v-12.27c0-.407-.069-.476-.477-.476h-2.144c-.429 0-.475.046-.475.476v14.604c0 .433.046.478.475.478h8.051c.39 0 .432-.04.432-.431v-1.949c.001-.371-.063-.432-.431-.432z"/></g><path d="m59.641 26.532c0 .397-.066.463-.463.463h-2.084c-.417 0-.461-.043-.461-.463v-14.2c0-.418.044-.463.461-.463h3.557c1.667 0 2.612.156 3.357.574 1.098.596 1.757 1.963 1.757 3.571 0 2.979-1.999 4.941-5.006 4.941h-1.119zm.615-8.07c1.93 0 2.611-.595 2.611-2.271 0-1.565-.592-2.073-2.37-2.073h-.856v4.345h.615z" fill="#e89723"/><path d="m75.842 13.06c1.098 1.256 1.625 3.307 1.625 6.197 0 3.019-.551 5.114-1.712 6.482-.9 1.082-2.174 1.632-3.776 1.632-3.667 0-5.378-2.647-5.378-8.269 0-1.853.349-3.794.876-4.811.923-1.784 2.591-2.798 4.588-2.798 1.516.002 2.921.596 3.777 1.567zm-6.081 6.307c0 3.792.747 5.622 2.262 5.622 1.536 0 2.284-1.852 2.284-5.557 0-3.749-.748-5.557-2.263-5.557-1.472 0-2.283 1.941-2.283 5.492z" fill="#e89723"/><path d="m87.602 24.261h-5.282v-11.929c0-.396-.067-.463-.462-.463h-2.085c-.419 0-.462.045-.462.463v14.201c0 .421.043.463.462.463h7.829c.375 0 .416-.037.416-.418v-1.896c.001-.361-.061-.421-.416-.421z" fill="#e89723"/><path d="m97.71 13.06c1.096 1.256 1.624 3.307 1.624 6.197 0 3.019-.55 5.114-1.711 6.482-.901 1.082-2.175 1.632-3.779 1.632-3.666 0-5.378-2.647-5.378-8.269 0-1.853.353-3.794.88-4.811.921-1.784 2.59-2.798 4.587-2.798 1.514.002 2.92.596 3.777 1.567zm-6.082 6.307c0 3.792.746 5.622 2.26 5.622 1.538 0 2.284-1.852 2.284-5.557 0-3.749-.746-5.557-2.262-5.557-1.469 0-2.282 1.941-2.282 5.492z" fill="#e89723"/><path d="m104.734 20.998c.066.331.197 1.037.264 1.39.109.618.198 1.235.307 1.873.286-1.543.375-1.917.681-3.263l2.035-8.756c.087-.286.247-.375.398-.375l2.397.004c.257-.004.38.097.314.358l-4.068 14.701c-.113.33-.154.374-.484.374h-2.568c-.373 0-.395-.022-.483-.374l-3.961-14.627c-.061-.181-.036-.436.377-.436l2.557.004c.159.017.299.049.373.394z" fill="#e89723"/><path d="m118.479 18.729c.504.969 1.03 2.25 1.405 3.395-.046-1.676-.046-1.939-.046-2.777v-7.014c0-.396.067-.463.462-.463h1.646c.418 0 .461.045.461.463v14.201c0 .421-.042.463-.461.463h-1.404c-.396 0-.438-.043-.657-.418l-3.777-7.145c-.724-1.368-1.031-2.051-1.405-3.133.065 1.545.065 1.545.065 2.691v7.54c0 .398-.065.464-.459.464h-1.647c-.418 0-.462-.043-.462-.464v-14.2c0-.418.044-.463.462-.463h1.711c.417 0 .439.023.637.375z" fill="#e89723"/><path d="m127.78 26.532c0 .397-.064.463-.463.463h-2.054c-.417 0-.461-.043-.461-.463v-14.2c0-.418.044-.463.461-.463h2.054c.396 0 .463.067.463.463z" fill="#e89723"/></svg>